<svg aria-hidden="true" style="position:absolute;width:0;height:0;overflow:hidden" xmlns="http://www.w3.org/2000/svg"><defs><symbol id="icon-linkedin" viewBox="0 0 32 32"><path d="M31.992 32v-.001H32V20.263c0-5.741-1.236-10.164-7.948-10.164-3.227 0-5.392 1.771-6.276 3.449h-.093v-2.913h-6.364v21.364h6.627V21.42c0-2.785.528-5.479 3.977-5.479 3.399 0 3.449 3.179 3.449 5.657v10.401h6.62zM.528 10.636h6.635V32H.528V10.636zM3.843 0C1.722 0 0 1.721 0 3.843s1.721 3.879 3.843 3.879c2.121 0 3.843-1.757 3.843-3.879A3.846 3.846 0 0 0 3.843 0z"/></symbol><symbol id="icon-mail" viewBox="0 0 43 32"><path  d="M38.667 0H4C1.794 0 0 1.794 0 4v24c0 2.206 1.794 4 4 4h34.667c2.206 0 4-1.794 4-4V4c0-2.206-1.794-4-4-4zm0 2.667c.181 0 .353.038.511.103L21.334 18.236 3.49 2.77a1.32 1.32 0 0 1 .511-.103h34.667zm0 26.666H4A1.334 1.334 0 0 1 2.667 28V5.587L20.46 21.008a1.335 1.335 0 0 0 1.748 0L40.001 5.587V28c0 .736-.598 1.333-1.333 1.333z"/></symbol><symbol id="icon-facebook" viewBox="0 0 32 32"><path  d="M21.329 5.313h2.921V.225C23.746.156 22.013 0 19.994 0c-4.212 0-7.097 2.649-7.097 7.519V12H8.249v5.688h4.648V32h5.699V17.689h4.46l.708-5.688h-5.169V8.082c.001-1.644.444-2.769 2.735-2.769z"/></symbol><symbol id="icon-close" viewBox="0 0 32 32"><path d="m7.004 23.087 7.08-7.081-7.07-7.071L8.929 7.02l7.067 7.069L23.084 7l1.912 1.913-7.089 7.093 7.075 7.077-1.912 1.913-7.074-7.073L8.917 25z"/></symbol><symbol id="icon-email" viewBox="0 0 32 32"><path d="M26.667 5.333H5.334A2.663 2.663 0 0 0 2.681 8l-.013 16c0 1.467 1.2 2.667 2.667 2.667h21.333c1.467 0 2.667-1.2 2.667-2.667V8c0-1.467-1.2-2.667-2.667-2.667zM26.133 11l-9.427 5.893a1.346 1.346 0 0 1-1.413 0L5.866 11a1.132 1.132 0 1 1 1.2-1.92l8.933 5.587 8.933-5.587a1.132 1.132 0 1 1 1.2 1.92z"/></symbol><symbol id="icon-phone" viewBox="0 0 20 32"><path d="M17 0H3C1.346 0 0 1.346 0 3v26c0 1.654 1.346 3 3 3h14c1.654 0 3-1.346 3-3V3c0-1.654-1.346-3-3-3zM3 2h14a1 1 0 0 1 1 1v21H2V3a1 1 0 0 1 1-1zm14 28H3a1 1 0 0 1-1-1v-3h16v3a1 1 0 0 1-1 1z"/><path d="M4.707 27.478c.391.365.391.956 0 1.321s-1.024.365-1.414 0c-.391-.365-.391-.956 0-1.321s1.024-.365 1.414 0z"/></symbol>
+<symbol id="icon-github" viewBox="0 0 32 32"><path  d="M16 0C7.165 0 0 7.164 0 16c0 7.069 4.584 13.067 10.943 15.183.799.148 1.057-.348 1.057-.769v-2.979c-4.451.968-5.377-1.888-5.377-1.888-.728-1.849-1.777-2.341-1.777-2.341-1.452-.993.111-.972.111-.972 1.607.112 2.452 1.649 2.452 1.649 1.427 2.445 3.743 1.739 4.656 1.329.143-1.033.557-1.74 1.016-2.139-3.553-.407-7.289-1.779-7.289-7.908 0-1.748.625-3.175 1.648-4.295-.165-.404-.713-2.032.156-4.235 0 0 1.344-.429 4.401 1.64a15.345 15.345 0 0 1 4.004-.539c1.36.007 2.729.184 4.008.539 3.055-2.069 4.396-1.64 4.396-1.64.871 2.204.323 3.832.157 4.235 1.027 1.12 1.647 2.548 1.647 4.295 0 6.145-3.743 7.499-7.305 7.895.573.496 1.097 1.469 1.097 2.963v4.391c0 .425.256.925 1.068.768 6.353-2.119 10.932-8.115 10.932-15.181 0-8.836-7.164-16-16-16z"/></symbol><symbol id="icon-earth" viewBox="0 0 32 32"><path d="M16 0C7.163 0 0 7.163 0 16s7.163 16 16 16 16-7.163 16-16S24.837 0 16 0zm0 30c-1.967 0-3.84-.407-5.538-1.139l7.286-8.197a.998.998 0 0 0 .253-.664v-3a1 1 0 0 0-1-1c-3.531 0-7.256-3.671-7.293-3.707A1 1 0 0 0 9.001 12h-4a1 1 0 0 0-1 1v6c0 .379.214.725.553.894l3.447 1.724v5.871c-3.627-2.53-6-6.732-6-11.489 0-2.147.484-4.181 1.348-6h3.652c.265 0 .52-.105.707-.293l4-4A1 1 0 0 0 12.001 5V2.581a14.013 14.013 0 0 1 4-.581c2.2 0 4.281.508 6.134 1.412A5.961 5.961 0 0 0 20.002 8c0 1.603.624 3.109 1.757 4.243a5.985 5.985 0 0 0 4.536 1.751c.432 1.619 1.211 5.833-.263 11.635a.936.936 0 0 0-.026.163A13.956 13.956 0 0 1 16.002 30z"/></defs></svg>